<?xml version="1.0" standalone="no"?>
<!DOCTYPE svg PUBLIC "-//W3C//DTD SVG 20010904//EN"
 "http://www.w3.org/TR/2001/REC-SVG-20010904/DTD/svg10.dtd">
<svg version="1.0" xmlns="http://www.w3.org/2000/svg"
 width="1482.000000pt" height="1482.000000pt" viewBox="0 0 1482.000000 1482.000000"
 preserveAspectRatio="xMidYMid meet">
<metadata>
Created by potrace 1.14, written by Peter Selinger 2001-2017
</metadata>
<g transform="translate(0.000000,1482.000000) scale(0.100000,-0.100000)"
fill="#000000" stroke="none">
<path d="M7270 14759 c-787 -29 -1607 -203 -2350 -499 -1350 -538 -2494 -1461
-3312 -2670 -674 -997 -1073 -2118 -1195 -3360 -26 -266 -26 -1035 0 -1295 67
-668 195 -1234 412 -1825 395 -1076 1023 -2013 1891 -2821 523 -487 1222 -949
1891 -1250 766 -344 1496 -534 2378 -616 267 -25 901 -25 1170 0 789 73 1433
227 2125 507 1488 600 2768 1732 3560 3145 504 900 808 1892 892 2915 19 233
15 1016 -6 1240 -75 807 -258 1517 -578 2245 -597 1357 -1614 2507 -2900 3279
-450 270 -1009 523 -1473 666 -38 12 -88 28 -110 35 -22 8 -80 25 -130 39 -49
13 -115 31 -145 40 -85 23 -351 82 -495 110 -112 21 -196 35 -375 61 -207 30
-860 71 -998 63 -15 0 -128 -5 -252 -9z m-154 -684 c18 -44 56 -134 84 -200
29 -66 57 -134 64 -150 21 -58 44 -82 80 -89 20 -4 36 -11 36 -15 0 -9 -45
-14 -206 -27 -87 -7 -115 5 -64 26 37 15 37 27 4 112 l-27 67 -91 -6 c-50 -3
-94 -8 -97 -12 -13 -14 -51 -142 -46 -155 3 -8 19 -17 36 -21 17 -4 31 -12 31
-19 0 -18 -202 -30 -212 -13 -5 8 3 16 22 22 16 6 34 15 40 21 11 11 72 173
90 239 4 17 16 53 25 80 10 28 26 73 35 100 9 28 25 73 35 100 9 28 20 63 24
80 5 20 14 31 31 36 28 6 35 -7 106 -176z m624 170 c0 -8 -14 -18 -32 -23
l-33 -8 -7 -140 c-3 -76 -8 -203 -10 -280 l-3 -142 83 -6 c52 -5 88 -3 96 3 6
5 25 37 41 71 35 74 55 79 54 13 0 -27 -4 -68 -7 -93 l-7 -45 -50 2 c-28 1
-134 5 -237 9 -175 6 -229 16 -158 30 16 4 34 11 39 18 4 6 11 135 13 287 l5
276 -33 12 c-63 23 -36 31 106 31 117 0 140 -2 140 -15z m-1192 -142 c-2 -47
-7 -88 -13 -90 -5 -1 -23 26 -40 62 -30 64 -31 65 -70 65 -67 0 -139 -41 -172
-97 -26 -45 -28 -55 -28 -153 1 -93 4 -112 28 -165 16 -33 40 -73 55 -89 65
-68 177 -85 284 -41 73 29 68 29 68 10 0 -44 -165 -115 -266 -115 -95 0 -210
57 -257 129 -93 140 -88 332 11 445 67 75 195 122 345 125 l58 1 -3 -87z
m2147 55 c63 -26 62 -21 26 -118 -27 -75 -45 -72 -51 10 -4 56 -8 66 -30 77
-61 31 -142 5 -166 -53 -25 -60 5 -111 101 -174 75 -49 99 -74 120 -122 22
-54 19 -97 -12 -158 -40 -78 -94 -105 -212 -103 -85 1 -191 29 -207 55 -3 5 4
46 17 89 17 57 28 79 39 77 11 -3 16 -20 18 -71 3 -64 5 -69 35 -87 70 -43
166 -13 188 58 16 56 -8 102 -80 151 -67 47 -130 107 -142 139 -15 38 -10 114
9 152 9 19 36 49 60 67 42 32 47 33 138 33 74 0 105 -5 149 -22z m-2838 -114
c2 -6 -13 -18 -32 -27 -26 -13 -35 -22 -31 -35 3 -9 16 -60 30 -112 14 -52 32
-120 40 -150 8 -30 24 -90 36 -134 35 -132 43 -146 84 -146 51 0 45 -15 -11
-30 -27 -6 -77 -20 -113 -30 -112 -31 -120 -32 -120 -16 0 8 9 17 19 21 48 15
48 19 -25 280 -25 91 -53 195 -66 248 -12 46 -14 47 -50 47 -26 0 -38 4 -38
14 0 10 23 20 68 30 37 9 94 25 127 35 63 21 77 21 82 5z m3474 -20 c69 -23
90 -35 138 -83 92 -89 113 -189 70 -327 -25 -80 -39 -104 -93 -162 -66 -70
-119 -92 -223 -92 -272 0 -427 189 -353 431 67 221 234 306 461 233z m-3931
-96 c0 -7 -12 -22 -27 -34 -32 -26 -36 -10 54 -239 83 -212 101 -258 108 -282
7 -24 11 -26 63 -23 53 3 37 -23 -31 -48 -34 -13 -90 -35 -124 -48 -34 -13
-64 -24 -67 -24 -15 0 -4 30 14 40 28 15 25 36 -19 147 -39 96 -115 294 -124
323 -3 8 -6 -107 -6 -257 -1 -267 -6 -315 -33 -325 -9 -4 -84 71 -201 198
-103 113 -187 199 -187 192 1 -7 38 -105 83 -218 80 -199 83 -205 112 -208 49
-6 49 -18 -2 -36 -26 -9 -67 -26 -90 -36 -51 -23 -71 -8 -30 22 32 23 34 46 7
98 -11 22 -20 44 -20 51 0 6 -6 25 -14 42 -8 18 -40 96 -71 175 -82 210 -73
195 -117 189 -58 -8 -47 16 20 42 31 12 76 31 99 41 l42 19 168 -182 168 -182
3 247 2 246 48 18 c26 9 72 28 102 40 64 27 70 28 70 12z m4706 -179 c76 -24
147 -57 183 -86 l24 -20 -48 -71 c-26 -40 -52 -69 -57 -66 -5 3 -8 38 -6 78
l3 71 -45 23 c-117 59 -237 4 -306 -141 -37 -78 -50 -151 -39 -228 13 -95 112
-174 244 -195 28 -4 38 -10 34 -20 -8 -21 -128 -18 -196 5 -109 38 -185 109
-223 207 -22 58 -15 180 14 244 49 106 113 166 215 201 69 24 120 23 203 -2z
m484 -232 c67 -35 120 -67 119 -73 -2 -5 -20 -8 -39 -6 l-35 3 -69 -133 c-38
-73 -96 -186 -129 -251 l-60 -118 28 -29 c16 -17 25 -33 21 -37 -10 -11 -256
115 -256 131 0 11 8 12 38 5 29 -6 40 -5 48 7 7 8 66 122 133 253 l120 238
-24 23 c-21 20 -34 50 -21 50 2 0 59 -28 126 -63z m-6112 -24 c12 -32 24 -68
27 -80 10 -37 -19 -28 -58 17 l-34 41 -77 -42 c-42 -22 -76 -45 -76 -51 0 -14
99 -196 110 -203 4 -3 28 5 52 18 41 21 43 25 43 67 0 73 24 61 73 -37 35 -67
41 -87 31 -94 -9 -5 -23 2 -41 22 l-27 29 -55 -27 -54 -26 44 -83 c67 -126 78
-144 88 -144 5 0 42 18 83 41 l74 41 -3 71 c-2 46 1 71 9 74 14 5 88 -146 76
-157 -4 -4 -53 -31 -108 -61 -55 -29 -122 -66 -150 -81 -27 -15 -61 -33 -75
-40 -14 -7 -37 -20 -52 -30 -37 -25 -44 -2 -10 35 l26 27 -32 63 c-76 150
-196 368 -224 410 -17 24 -24 26 -59 21 -62 -10 -47 9 44 56 45 23 87 46 92
50 6 4 55 31 110 60 55 28 104 56 110 61 17 16 22 10 43 -48z m6532 -213 c47
-29 105 -66 130 -81 25 -16 62 -37 82 -49 20 -11 39 -23 41 -28 3 -4 -19 -34
-48 -67 -38 -43 -56 -57 -64 -49 -8 7 -7 22 4 53 8 24 15 49 15 55 0 10 -130
96 -145 96 -5 0 -58 -81 -113 -172 l-22 -36 52 -31 53 -30 27 26 c16 15 33 23
43 20 12 -5 6 -22 -37 -92 -50 -81 -74 -101 -72 -59 0 10 4 29 8 41 6 19 0 27
-40 53 -27 16 -51 30 -55 30 -3 0 -22 -25 -40 -55 -19 -31 -49 -79 -67 -107
l-33 -52 23 -18 c38 -30 124 -78 139 -78 8 0 32 14 53 30 37 28 76 39 76 22 0
-4 -22 -37 -48 -73 l-48 -66 -35 19 c-19 10 -61 36 -94 58 -33 22 -73 47 -90
56 -16 9 -52 31 -80 49 -27 17 -63 39 -78 49 -36 22 -27 36 18 26 32 -7 38 -5
59 23 13 18 37 55 54 82 16 28 48 79 70 115 23 36 66 106 98 157 l56 92 -21
30 c-12 16 -21 34 -21 41 0 13 6 10 150 -80z m-7126 -59 c4 -5 -5 -22 -18 -38
l-25 -30 72 -102 c40 -57 90 -129 112 -161 156 -225 134 -206 208 -184 29 9
19 -20 -14 -40 -17 -10 -67 -44 -112 -76 -55 -40 -84 -55 -89 -47 -4 6 2 21
12 32 11 12 20 25 20 29 0 12 -151 226 -160 226 -5 0 -21 -11 -37 -23 -15 -13
-63 -47 -106 -76 -86 -58 -85 -52 -25 -132 19 -24 49 -68 67 -97 33 -52 35
-53 72 -47 56 10 49 -7 -23 -56 -35 -24 -83 -57 -107 -76 -64 -48 -82 -41 -40
16 l21 29 -86 123 c-100 144 -193 275 -221 313 -18 24 -23 25 -55 16 -46 -13
-61 3 -24 26 16 10 65 44 110 76 77 55 104 68 104 50 0 -5 -7 -17 -15 -28 -8
-10 -15 -25 -15 -32 0 -10 96 -156 125 -190 6 -7 225 144 225 155 0 3 -29 47
-65 99 -66 93 -79 103 -115 84 -28 -15 -33 4 -7 27 12 11 54 41 93 67 40 25
77 53 84 61 14 17 26 19 34 6z m7660 -298 c68 -54 167 -131 221 -171 53 -41
95 -75 93 -76 -2 -2 -32 -29 -67 -60 -77 -71 -95 -65 -56 18 l27 57 -28 22
c-16 12 -40 32 -53 43 l-25 21 -46 -61 c-25 -33 -86 -113 -135 -176 -147 -191
-155 -201 -155 -211 0 -6 11 -25 26 -44 45 -60 8 -47 -93 31 -53 42 -108 83
-120 91 -28 18 -32 49 -5 38 69 -28 75 -29 91 -8 9 11 49 62 89 114 40 52 108
141 152 198 89 114 88 107 19 162 l-38 30 -56 -35 c-80 -51 -90 -49 -53 13 34
57 68 101 79 101 5 0 65 -44 133 -97z m-8336 -303 c23 -38 42 -72 42 -75 0
-14 -36 -1 -82 29 l-51 35 -42 -29 c-61 -42 -89 -92 -89 -160 1 -140 146 -303
292 -326 83 -13 188 48 256 150 26 40 40 19 21 -33 -34 -97 -125 -185 -230
-222 -114 -40 -212 -16 -311 74 -35 33 -75 78 -88 101 -51 86 -51 218 -1 315
35 69 191 211 231 211 6 0 30 -31 52 -70z m8919 -186 c44 -45 42 -69 -4 -39
-36 24 -47 10 -79 -110 -38 -143 -39 -149 -23 -143 8 2 63 22 122 43 60 21
111 45 114 52 3 8 0 25 -7 39 -26 47 1 36 72 -31 40 -38 75 -72 76 -77 5 -11
-16 -10 -53 3 -28 11 -50 6 -196 -41 -178 -57 -195 -68 -301 -193 l-41 -49 17
-30 c37 -62 -2 -43 -98 47 -58 54 -96 97 -92 104 5 8 16 6 39 -5 l32 -17 87
93 c49 51 91 104 93 119 3 14 13 51 22 81 9 30 19 71 23 90 4 19 15 62 24 94
15 57 15 61 -4 94 -51 85 14 40 177 -124z m-4056 -24 c25 -14 25 -51 -1 -124
-23 -68 -49 -108 -104 -160 -56 -53 -97 -78 -271 -165 l-150 -76 135 -5 135
-5 0 -25 0 -25 -179 -5 -180 -5 -13 -33 -13 -33 248 7 c275 8 305 5 300 -29
l-3 -22 -265 -3 c-145 -1 -268 -6 -273 -11 -4 -4 -5 -20 -2 -34 l7 -27 192 -2
191 -3 0 -25 0 -25 -169 -3 -168 -2 25 -20 c14 -11 55 -34 91 -51 36 -17 66
-34 66 -37 -1 -4 -22 -18 -49 -30 l-48 -24 -49 26 c-67 35 -130 94 -160 149
-19 37 -24 61 -24 123 0 97 22 147 92 208 46 40 89 64 263 147 100 48 200 115
233 157 40 50 72 116 72 146 0 14 9 31 22 40 27 19 24 19 49 6z m-671 -15 c10
-12 58 -15 279 -17 l266 -3 0 -25 0 -25 -252 -3 c-232 -2 -253 -4 -253 -20 0
-9 9 -28 19 -41 18 -24 19 -24 152 -18 74 4 140 3 147 -2 8 -5 12 -17 10 -27
-3 -17 -15 -19 -126 -22 l-123 -3 28 -22 c15 -13 50 -36 77 -51 l49 -29 -50
-24 -50 -25 -63 43 c-93 64 -161 163 -176 255 -4 31 -2 45 11 57 20 21 39 22
55 2z m609 -481 c60 -52 91 -121 91 -204 0 -86 -30 -150 -99 -211 -46 -41 -91
-66 -291 -163 -58 -28 -156 -91 -165 -106 -6 -9 17 -11 95 -9 86 3 104 1 113
-12 6 -9 7 -24 4 -33 -5 -14 -26 -16 -140 -16 l-134 0 -14 -27 c-7 -16 -15
-32 -17 -36 -2 -4 100 -7 228 -6 143 0 236 -3 242 -9 5 -5 8 -18 6 -28 -3 -18
-19 -19 -243 -22 -223 -2 -240 -4 -257 -22 -21 -22 -58 -26 -76 -8 -17 17 -15
46 7 111 30 87 87 164 159 217 59 43 95 63 306 166 141 69 196 146 180 251 -9
60 -62 114 -166 168 -42 22 -75 41 -74 43 2 1 23 13 47 25 l44 23 55 -27 c30
-15 75 -44 99 -65z m-5171 -16 c7 -7 12 -20 12 -29 0 -14 -142 -193 -196 -247
-17 -16 -139 -175 -221 -286 -166 -224 -335 -491 -470 -741 -44 -82 -183 -362
-210 -425 -9 -19 -20 -43 -24 -52 -12 -23 -102 -250 -134 -333 -15 -38 -35
-92 -46 -119 -10 -27 -19 -54 -19 -61 0 -7 -8 -34 -18 -61 -61 -161 -147 -488
-205 -784 -92 -461 -129 -975 -108 -1497 15 -393 64 -774 146 -1128 36 -154
68 -285 85 -340 70 -238 115 -377 131 -407 25 -46 -31 -103 -66 -67 -28 29
-163 470 -223 729 -117 499 -167 945 -167 1490 0 848 128 1536 439 2370 83
221 304 683 404 845 17 28 43 72 58 100 14 27 34 60 44 75 9 14 33 50 52 80
55 86 152 233 179 271 186 253 334 441 443 561 61 67 89 81 114 56z m9554 -75
c40 -47 94 -111 121 -141 58 -68 290 -375 343 -456 160 -241 231 -358 355
-579 82 -147 221 -439 299 -627 12 -30 29 -71 37 -90 9 -19 21 -53 28 -75 7
-22 25 -71 40 -110 41 -110 107 -313 143 -445 304 -1097 319 -2270 41 -3365
-51 -201 -156 -541 -184 -596 -17 -32 -45 -38 -69 -13 -20 20 -20 23 5 92 18
51 84 264 124 397 91 309 171 752 212 1175 25 259 25 840 0 1095 -43 439 -106
792 -209 1165 -30 112 -91 308 -119 388 -262 736 -596 1337 -1071 1929 -54 68
-107 131 -117 140 -34 35 -121 144 -121 154 0 24 22 49 45 49 18 0 42 -22 97
-87z m-6624 -34 c48 -23 88 -42 89 -43 0 -1 4 -46 8 -102 l7 -100 -85 -57 -86
-58 -89 45 -89 45 -7 97 c-6 78 -5 100 7 111 18 19 139 101 150 102 4 1 47
-18 95 -40z m4008 -33 c36 -36 44 -78 23 -117 -8 -16 -7 -25 4 -37 7 -9 74
-118 147 -242 120 -204 183 -309 217 -365 7 -11 23 -40 35 -65 20 -39 27 -45
50 -42 37 4 85 -23 104 -59 51 -99 -83 -203 -163 -127 -19 18 -33 23 -43 17
-8 -4 -76 -27 -150 -49 -74 -23 -160 -49 -190 -59 -30 -10 -89 -28 -130 -41
-41 -13 -98 -31 -126 -41 -40 -14 -54 -15 -64 -6 -10 10 -12 8 -7 -6 9 -26
-16 -80 -48 -105 -36 -29 -72 -28 -116 3 -40 26 -51 62 -39 119 5 28 0 38 -49
93 -47 53 -61 63 -89 63 -67 0 -111 42 -112 107 0 33 6 48 31 72 25 26 39 31
77 31 47 0 47 1 79 58 18 31 73 122 122 202 94 153 209 340 226 368 6 10 20
34 33 54 19 30 21 40 11 64 -25 67 27 144 98 144 27 0 43 -8 69 -34z m-3788
-291 l90 -44 4 -98 c6 -112 8 -108 -103 -177 l-56 -36 -91 43 c-90 41 -92 42
-97 82 -4 22 -5 69 -3 104 l3 65 75 52 c41 29 78 52 82 53 3 1 47 -19 96 -44z
m-383 -32 c38 -18 73 -37 76 -41 4 -4 10 -50 14 -103 l7 -96 -58 -39 c-33 -21
-61 -41 -64 -45 -3 -3 -15 -11 -27 -18 -19 -10 -35 -5 -111 33 l-89 45 -6 68
c-13 136 -15 132 71 190 86 57 82 57 187 6z m-378 -38 l62 -29 6 -75 c3 -42 8
-89 10 -104 4 -25 -2 -32 -66 -75 -39 -26 -77 -51 -85 -57 -19 -14 -193 73
-200 100 -3 11 -4 58 -2 104 l3 84 78 54 c73 50 80 52 105 40 15 -7 55 -26 89
-42z m2689 -51 c95 -64 194 -213 194 -293 0 -58 -68 -76 -88 -23 -6 15 -18 48
-27 74 -10 26 -24 53 -31 59 -8 6 -14 15 -14 20 0 9 -38 48 -66 67 -11 7 -40
26 -66 43 -27 17 -48 33 -48 35 0 6 82 43 96 44 6 0 29 -12 50 -26z m-1716
-195 c99 -47 92 -34 105 -180 l6 -67 -65 -45 c-107 -75 -96 -74 -196 -26 l-89
42 -6 56 c-3 31 -8 76 -11 101 l-5 45 83 57 c46 31 84 57 86 57 1 1 43 -18 92
-40z m-348 -50 l56 -28 7 -98 c9 -109 11 -105 -86 -165 -24 -15 -52 -33 -62
-40 -14 -11 -30 -6 -105 32 l-87 46 -9 92 c-4 51 -6 98 -3 105 3 7 39 36 81
64 l76 52 38 -16 c20 -8 62 -28 94 -44z m-342 -67 c0 -4 5 -47 10 -97 8 -79 7
-91 -8 -105 -22 -20 -146 -100 -155 -100 -4 0 -45 18 -92 40 -94 46 -88 36
-100 171 -6 75 -9 70 99 142 l68 46 89 -45 c49 -24 89 -48 89 -52z m2495 -193
c72 -6 176 -19 232 -30 56 -10 109 -19 118 -19 32 0 125 -32 120 -40 -6 -10
-92 -341 -105 -405 -5 -22 -6 -43 -4 -47 3 -4 21 -10 42 -13 20 -4 54 -13 75
-21 20 -8 54 -18 75 -23 105 -25 377 -141 517 -221 161 -91 325 -198 419 -273
63 -51 71 -54 98 -45 70 24 145 -10 175 -81 8 -18 16 -32 18 -30 2 2 58 58
125 123 68 68 124 116 128 110 75 -86 221 -275 257 -332 6 -9 25 -38 43 -65
18 -26 37 -58 43 -70 6 -12 21 -40 34 -62 14 -22 34 -58 45 -80 11 -22 28 -53
37 -70 9 -16 20 -38 25 -47 4 -10 12 -26 17 -35 5 -10 18 -38 28 -63 11 -25
30 -66 42 -93 11 -26 21 -53 21 -60 0 -7 9 -32 20 -55 11 -22 20 -46 20 -53 0
-6 9 -39 19 -73 33 -102 41 -140 33 -148 -9 -9 -194 -78 -229 -85 -16 -4 -23
-13 -23 -29 0 -27 -24 -33 -37 -10 -7 12 -33 6 -148 -33 -77 -26 -210 -71
-295 -100 -85 -29 -181 -61 -212 -72 l-56 -21 18 -43 c10 -24 20 -58 22 -77 2
-27 0 -33 -17 -33 -12 0 -21 8 -23 20 -2 11 -13 43 -24 71 l-21 52 -46 -18
c-51 -19 -52 -19 -266 -91 -82 -28 -153 -54 -157 -57 -6 -6 10 -149 17 -160 2
-2 31 4 66 12 35 8 87 19 114 25 28 6 61 13 75 17 24 6 24 6 5 -8 -29 -21 -88
-36 -190 -48 -172 -21 -290 -41 -293 -51 -2 -5 -18 -7 -37 -3 -59 11 -522 -98
-540 -126 -4 -6 -13 -10 -21 -10 -8 0 -75 -25 -147 -56 -73 -31 -148 -62 -168
-68 -19 -6 -66 -31 -105 -54 -89 -56 -386 -232 -391 -232 -3 0 -43 -28 -91
-62 -82 -59 -178 -107 -213 -108 -23 0 -174 -46 -201 -61 -15 -9 -67 -14 -143
-15 -66 -1 -181 -6 -255 -13 -177 -15 -469 -14 -875 4 -181 7 -500 12 -707 11
-366 -2 -378 -1 -378 17 0 11 -9 56 -20 101 -11 44 -22 103 -26 129 -3 27 -8
47 -11 44 -2 -3 1 -74 8 -157 11 -130 11 -153 -2 -160 -20 -13 -25 2 -40 115
-15 117 -17 373 -5 640 7 165 11 192 27 205 11 9 24 45 34 95 8 44 22 100 29
125 8 25 26 88 41 140 15 52 34 107 42 123 12 25 12 28 -4 33 -10 3 -32 12
-49 19 -30 13 -31 16 -24 52 4 21 15 58 24 83 8 25 16 52 16 61 0 9 8 38 19
65 10 27 24 65 31 84 6 19 19 53 26 75 26 72 165 358 209 430 13 22 34 56 45
75 30 52 41 69 83 127 20 29 37 55 37 59 0 3 9 16 20 28 11 11 47 56 81 99 33
42 65 77 70 77 5 0 52 -42 106 -94 l97 -94 26 25 c46 47 215 180 314 247 193
133 478 282 646 339 25 8 63 22 85 30 56 20 165 52 265 78 47 11 91 23 98 25
7 2 11 13 8 26 -4 21 -21 97 -56 258 -7 30 -16 74 -19 97 l-8 41 71 21 c39 12
80 21 90 21 10 0 64 9 120 20 194 38 521 50 771 29z m-2377 -69 c44 -22 86
-40 91 -40 10 0 15 -30 26 -145 l5 -61 -47 -35 c-27 -20 -66 -47 -87 -61 l-39
-24 -88 42 -87 43 -7 58 c-3 32 -8 77 -11 99 -5 46 -6 45 106 124 30 21 55 39
55 39 1 1 38 -17 83 -39z m-1680 -317 c3 -21 -1 -23 -37 -23 -42 0 -57 11 -47
36 4 11 17 14 43 12 31 -2 39 -7 41 -25z m92 2 c17 -18 35 -25 73 -27 47 -3
52 -6 69 -40 11 -20 39 -55 63 -77 61 -56 87 -55 140 6 25 29 46 44 53 39 20
-12 14 -42 -15 -77 l-27 -32 22 -38 23 -39 -22 -38 -23 -39 28 -36 c29 -38 31
-70 6 -74 -8 -2 -28 15 -44 37 -25 33 -36 40 -65 40 -38 0 -45 -6 -153 -143
-45 -57 -67 -77 -81 -75 -11 2 -22 8 -24 13 -2 6 38 62 89 124 l91 115 -21 37
-22 38 21 36 22 36 -23 24 -23 24 -21 -32 c-19 -27 -28 -32 -70 -35 -55 -4
-67 4 -102 64 l-25 42 21 37 21 38 -22 23 c-22 24 -20 54 4 54 7 0 24 -11 37
-25z m535 -50 c0 -18 -8 -20 -69 -23 -72 -3 -93 5 -82 33 5 13 19 15 78 13 65
-3 73 -5 73 -23z m-6 -59 c19 -23 2 -46 -35 -46 -36 0 -51 17 -40 45 7 19 60
20 75 1z m6545 -173 c12 -57 26 -225 32 -401 7 -187 24 -251 24 -94 1 94 13
210 30 273 14 50 45 69 71 42 26 -26 38 -99 48 -306 5 -98 11 -181 14 -183 2
-2 7 40 10 94 9 133 29 200 64 208 21 6 31 1 50 -20 13 -15 23 -37 23 -48 0
-40 22 -148 30 -148 5 0 11 24 15 53 10 72 21 95 49 109 37 16 71 -10 93 -71
13 -39 20 -47 30 -39 7 6 13 15 13 21 0 42 80 64 100 27 9 -17 21 -20 88 -20
88 0 107 -8 97 -39 -6 -19 -13 -21 -100 -21 -69 0 -97 4 -108 15 -13 12 -18 9
-42 -25 -23 -33 -33 -40 -61 -40 -38 0 -59 24 -70 78 -7 35 -24 44 -24 12 0
-53 -23 -121 -46 -136 -52 -34 -98 8 -111 101 -10 76 -21 60 -28 -42 -8 -115
-10 -123 -36 -157 -66 -84 -115 51 -121 334 -1 55 -3 72 -5 40 -16 -286 -43
-551 -60 -577 -17 -28 -49 -30 -63 -4 -16 31 -28 188 -35 451 -8 339 -17 363
-38 115 -27 -308 -29 -315 -71 -315 -37 0 -54 29 -73 128 -18 89 -33 111 -33
50 0 -38 -49 -89 -78 -81 -11 2 -30 16 -43 29 -19 20 -32 24 -85 24 -54 0 -65
3 -74 21 -20 36 3 49 87 49 63 0 77 -3 96 -22 l22 -23 26 65 c18 44 35 70 53
80 26 14 28 14 52 -13 17 -20 24 -41 25 -70 0 -23 4 -50 8 -61 4 -10 17 87 29
220 26 276 36 329 65 349 26 18 53 4 61 -32z m-7177 -54 c15 -5 31 -16 35 -22
14 -22 8 -57 -12 -69 -17 -11 -20 -24 -20 -93 l0 -80 52 -70 c28 -38 63 -86
78 -105 94 -125 109 -169 69 -206 -19 -17 -42 -19 -275 -22 -246 -3 -256 -2
-284 18 -50 36 -42 70 43 185 151 206 147 198 147 281 0 61 -4 78 -20 94 -23
23 -26 49 -7 73 8 11 31 17 77 20 36 2 70 4 77 5 6 1 24 -3 40 -9z m633 -94
c19 -22 -5 -45 -47 -45 -35 0 -50 17 -39 45 3 9 18 15 39 15 19 0 40 -7 47
-15z m-973 -310 c7 -21 0 -27 -43 -34 -34 -6 -40 -14 -106 -126 -39 -66 -80
-136 -90 -155 -11 -19 -24 -39 -29 -44 -5 -6 -9 -13 -9 -17 0 -4 71 -9 158
-12 166 -5 234 -19 315 -67 l37 -22 0 86 c0 69 3 88 15 93 24 9 27 1 32 -91
l6 -86 44 25 c86 48 185 69 329 69 l132 1 -14 25 c-8 14 -27 46 -42 72 -15 26
-53 92 -85 147 -55 96 -59 100 -95 103 -29 2 -37 7 -37 23 0 17 6 20 45 17 47
-2 72 -23 101 -81 7 -14 21 -37 30 -51 9 -14 29 -47 43 -75 15 -27 45 -79 67
-115 22 -35 43 -77 46 -92 l5 -27 -103 4 c-120 6 -119 2 4 -16 57 -8 91 -18
94 -26 11 -27 -13 -31 -106 -17 -52 8 -96 12 -98 10 -2 -2 15 -7 39 -11 24 -3
71 -15 106 -26 47 -16 62 -25 62 -40 0 -25 -25 -25 -88 0 -113 45 -398 54
-471 16 -30 -15 -35 -15 -79 2 -39 15 -75 18 -207 17 -143 -1 -169 -4 -244
-28 -98 -30 -101 -31 -101 -11 0 20 32 36 130 62 l85 22 -65 -5 c-36 -3 -80
-10 -99 -15 -37 -9 -51 -5 -51 16 0 14 51 29 155 45 54 8 49 9 -43 5 -122 -4
-127 0 -85 74 106 190 195 341 206 349 12 10 43 18 80 21 10 0 20 -6 24 -14z
m9063 -1594 c6 -12 10 -121 10 -285 0 -249 -1 -267 -19 -285 -14 -14 -16 -21
-7 -24 19 -8 126 -153 126 -172 0 -8 -14 -42 -30 -75 l-30 -60 -504 0 -503 0
-32 59 c-17 32 -31 67 -31 76 0 9 14 35 32 57 17 22 42 56 55 75 l24 35 -1
302 c0 166 3 305 6 309 4 4 207 7 450 7 428 0 444 -1 454 -19z m-9279 -259
c83 -18 149 -46 156 -67 2 -6 -3 -20 -11 -30 -14 -19 -16 -19 -48 -2 -54 29
-138 47 -218 47 -231 -1 -414 -129 -496 -347 -22 -58 -26 -84 -26 -179 0 -92
4 -120 22 -162 26 -60 24 -97 -5 -97 -53 0 -96 198 -77 350 31 238 220 438
462 490 89 18 140 18 241 -3z m324 -118 c37 -40 34 -94 -6 -128 -41 -35 -80
-34 -119 4 -38 37 -39 77 -4 119 35 42 93 44 129 5z m-318 -36 c271 -86 395
-378 271 -635 -40 -83 -115 -155 -207 -201 -74 -37 -76 -37 -195 -37 -116 0
-124 2 -183 32 -86 44 -129 78 -174 140 -187 252 -74 602 225 699 91 30 175
30 263 2z m411 -185 c10 -21 27 -76 37 -122 82 -390 -263 -751 -661 -691 -138
20 -205 58 -168 95 19 19 17 19 67 -7 38 -21 56 -23 183 -23 l141 0 84 42 c76
38 189 129 189 152 0 5 6 14 14 20 20 17 62 106 81 170 8 30 15 88 15 130 0
71 -23 185 -41 206 -11 11 -12 49 -2 58 17 18 44 4 61 -30z m374 -1846 c79
-30 160 -103 195 -174 25 -51 28 -69 28 -153 0 -84 -3 -102 -28 -152 -44 -90
-156 -175 -254 -194 l-33 -6 -2 -196 c-3 -178 -5 -197 -20 -200 -17 -3 -18 11
-18 196 l0 200 -40 7 c-59 10 -150 58 -192 102 -20 21 -49 63 -64 93 -26 49
-29 65 -29 150 0 85 3 101 29 150 85 165 266 239 428 177z m7191 -10 c80 -37
139 -95 173 -170 24 -53 28 -75 28 -147 1 -71 -4 -94 -26 -143 -15 -32 -44
-76 -65 -98 -43 -45 -133 -94 -193 -104 l-40 -7 -2 -196 c-3 -167 -5 -197 -18
-197 -13 0 -15 30 -18 196 l-2 197 -33 6 c-61 11 -151 62 -195 110 -69 75 -87
124 -87 236 0 84 3 102 28 152 36 74 116 146 193 175 80 31 176 27 257 -10z
m-5238 -170 c52 -30 85 -79 85 -129 l0 -39 61 48 c52 41 68 48 105 48 31 0 50
-6 65 -21 l21 -22 36 24 c56 38 89 32 168 -33 23 -18 45 -33 50 -33 5 0 10 19
11 41 0 23 10 54 20 68 24 33 98 71 138 71 81 0 170 -85 162 -157 l-3 -31 36
28 c96 76 135 85 193 46 27 -18 37 -21 41 -11 6 18 72 38 100 31 13 -3 51 -26
85 -51 l61 -45 0 42 c0 55 38 111 91 132 52 21 81 20 138 -4 53 -23 82 -63 91
-123 l5 -38 56 40 c31 22 68 43 82 46 33 9 93 -11 101 -32 6 -14 10 -13 32 8
42 39 96 33 169 -19 l60 -43 5 38 c9 60 38 100 91 123 57 24 86 25 137 5 51
-21 86 -68 92 -127 l5 -46 59 45 c75 57 120 66 161 31 l29 -25 34 23 c19 13
47 24 61 24 27 0 94 -38 140 -79 31 -27 32 -27 25 8 -4 18 1 42 15 70 48 93
170 117 255 50 34 -26 59 -86 52 -121 -3 -16 -4 -28 -2 -28 2 0 30 20 62 45
32 25 69 48 81 51 33 9 71 -3 99 -31 45 -45 35 -67 -91 -195 -112 -113 -116
-118 -125 -173 -5 -31 -13 -64 -19 -74 -5 -10 -15 -48 -21 -83 -16 -91 -42
-146 -79 -164 -41 -22 -99 -20 -137 3 -37 23 -48 52 -94 241 l-32 135 -109
111 -110 110 -109 -104 c-61 -57 -110 -112 -110 -121 0 -9 -9 -47 -20 -86 -11
-38 -29 -108 -41 -155 -18 -67 -30 -92 -56 -119 -32 -32 -37 -33 -89 -29 -85
7 -97 25 -144 208 -22 85 -40 162 -40 171 0 15 -199 220 -222 228 -5 2 -59
-45 -118 -104 -81 -81 -109 -116 -113 -139 -11 -73 -70 -283 -87 -312 -51 -81
-178 -69 -216 21 -13 32 -57 195 -76 288 -10 42 -22 58 -119 151 l-108 104
-109 -108 -108 -107 -33 -139 c-46 -194 -58 -222 -95 -245 -38 -23 -96 -25
-137 -3 -37 19 -61 70 -83 174 -9 41 -22 93 -30 115 -9 22 -15 52 -16 67 0 20
-26 52 -110 135 l-111 108 -112 -106 c-108 -103 -112 -109 -124 -165 -41 -202
-63 -274 -95 -309 -24 -27 -32 -30 -86 -30 -95 0 -108 19 -157 215 -9 36 -21
91 -27 123 -11 57 -13 61 -119 159 -60 56 -112 113 -117 127 -19 55 26 106 93
106 36 0 53 -8 104 -47 l61 -48 0 39 c0 49 33 99 85 128 51 29 99 29 150 0z
m7245 -192 l0 -45 118 -56 c429 -206 386 -190 416 -152 13 17 28 28 34 24 7
-4 -11 -52 -48 -128 -59 -123 -84 -156 -79 -102 5 41 -3 49 -79 85 -37 18
-131 63 -210 100 -78 38 -144 69 -147 69 -3 0 12 -17 33 -38 50 -50 346 -381
350 -391 1 -4 -3 -14 -10 -23 -12 -15 -31 -15 -258 3 -135 11 -256 18 -270 16
-22 -3 -17 -7 30 -29 30 -14 122 -58 203 -97 82 -39 152 -71 156 -71 4 0 16 9
26 20 33 36 46 25 26 -22 -63 -147 -86 -173 -86 -97 0 49 16 37 -190 135 -88
42 -193 91 -234 111 l-73 35 -27 -26 c-26 -25 -56 -36 -49 -17 2 4 23 52 48
105 l45 97 40 -5 c59 -9 438 -27 443 -22 4 4 -279 318 -310 344 -13 11 -13 17
6 55 12 23 34 70 49 105 16 34 33 62 38 62 5 0 9 -20 9 -45z m-11550 15 c0 -6
9 -29 19 -53 44 -97 81 -186 81 -196 0 -20 -19 -11 -41 18 -21 28 -23 29 -53
16 -44 -20 -255 -110 -295 -126 -18 -8 -70 -30 -115 -50 l-81 -36 3 -41 c4
-51 -13 -55 -32 -9 -8 17 -33 76 -57 130 -23 53 -39 100 -35 104 3 4 19 -6 34
-20 16 -15 32 -27 36 -27 9 0 38 12 276 115 265 114 239 98 233 145 -5 33 -3
40 11 40 9 0 16 -5 16 -10z m1854 -104 c44 -33 77 -87 83 -136 12 -84 -53
-181 -134 -202 l-42 -10 -3 -107 c-2 -86 -6 -106 -18 -106 -12 0 -16 20 -18
106 l-3 106 -38 12 c-54 16 -90 47 -112 98 -35 81 -20 161 41 222 40 39 80 51
153 47 43 -3 66 -11 91 -30z m975 1 c73 -48 101 -158 62 -243 -22 -48 -59 -80
-112 -95 l-38 -12 -3 -106 c-2 -86 -6 -106 -18 -106 -12 0 -16 20 -18 106 l-3
107 -43 11 c-70 17 -136 108 -136 186 0 28 43 116 66 137 61 54 173 61 243 15z
m6190 0 c78 -52 106 -159 62 -245 -24 -47 -72 -87 -118 -97 l-32 -6 -3 -107
c-2 -87 -6 -107 -18 -107 -12 0 -16 20 -18 107 l-3 107 -35 7 c-73 13 -137
100 -137 184 0 47 27 113 60 142 61 55 171 62 242 15z m977 -2 c129 -98 96
-298 -55 -338 l-44 -12 7 -103 c6 -89 5 -103 -10 -109 -26 -10 -34 16 -34 118
l0 96 -39 12 c-55 16 -120 91 -122 140 -4 98 8 136 59 184 38 37 74 47 145 43
44 -3 66 -11 93 -31z m-9779 -370 c62 -122 68 -162 19 -116 -12 12 -30 21 -39
21 -15 0 -459 -221 -483 -242 -7 -5 -10 -24 -7 -48 3 -24 2 -40 -4 -40 -17 0
-144 258 -130 263 7 2 23 -9 37 -25 l25 -30 135 70 c74 39 187 97 250 129
l115 60 -3 41 c-6 72 19 48 85 -83z m114 -299 c71 -25 135 -102 178 -216 21
-54 17 -69 -16 -70 -6 0 -33 -9 -59 -20 -69 -30 -80 -12 -26 43 48 49 51 67
20 113 -49 72 -111 83 -165 29 l-36 -36 7 -119 c6 -106 5 -124 -12 -162 -58
-128 -202 -155 -313 -60 -46 39 -96 123 -120 198 l-16 52 46 20 c91 39 112 45
121 36 6 -6 -9 -28 -40 -59 -65 -64 -65 -91 3 -162 50 -53 105 -54 161 -1 19
18 21 31 21 167 0 147 0 148 29 185 50 66 136 91 217 62z m10772 -225 c40 -10
117 -29 172 -41 55 -13 123 -29 150 -36 28 -7 85 -20 129 -29 l78 -16 39 25
c21 14 40 22 43 17 3 -5 -9 -31 -27 -57 -18 -27 -53 -82 -77 -121 -25 -40 -48
-73 -52 -73 -4 0 -8 19 -10 42 -3 40 -5 43 -43 54 -22 6 -57 14 -77 17 -36 5
-37 5 -88 -73 l-52 -79 35 -48 c63 -86 75 -92 119 -61 31 22 29 2 -4 -48 -18
-27 -43 -66 -55 -86 -30 -51 -44 -49 -37 6 6 42 3 48 -70 152 -164 235 -255
364 -279 396 -19 25 -23 38 -16 56 10 27 29 28 122 3z m-10443 -218 c76 -111
157 -220 193 -263 15 -18 24 -36 20 -40 -20 -19 -143 -68 -149 -59 -3 5 11 30
31 55 l37 45 -53 69 c-29 39 -55 70 -58 70 -17 0 -191 -131 -191 -143 0 -5 14
-29 32 -53 23 -32 36 -43 47 -38 29 13 69 16 74 7 4 -5 -21 -30 -55 -54 -33
-24 -69 -50 -80 -58 -32 -24 -44 1 -18 37 25 34 22 52 -19 100 l-29 34 -73
-53 c-41 -29 -76 -56 -79 -59 -3 -3 -17 -15 -31 -26 l-27 -20 55 -73 55 -72
55 7 c30 3 62 7 71 8 35 2 14 -25 -53 -68 l-69 -44 -31 43 c-38 54 -151 211
-211 293 -39 52 -43 62 -26 62 10 0 27 -9 37 -20 10 -12 25 -18 32 -16 7 3 64
43 126 89 61 45 160 119 220 162 76 57 106 84 101 95 -13 35 -16 70 -6 70 7 0
39 -39 72 -87z m10208 -230 c55 -41 67 -69 66 -152 l-1 -77 101 -13 c191 -24
204 -25 247 -6 21 10 42 15 45 12 10 -10 -33 -72 -81 -116 -39 -36 -50 -41
-92 -41 -27 0 -101 10 -166 22 -117 22 -152 19 -152 -10 0 -5 35 -39 79 -74
121 -97 110 -92 145 -74 39 21 52 2 20 -28 -13 -12 -50 -57 -83 -99 -67 -88
-89 -99 -72 -37 12 47 25 32 -159 177 -60 47 -112 90 -115 94 -3 5 -39 33 -80
64 l-73 55 -35 -21 c-48 -28 -59 -10 -19 31 19 19 65 78 104 130 113 152 170
194 252 186 24 -2 55 -12 69 -23z m-8378 -98 c74 -8 162 -19 195 -25 88 -15
358 -12 456 4 150 26 367 42 381 28 21 -21 -10 -32 -93 -32 -42 0 -114 -6
-160 -14 -176 -30 -359 -39 -511 -27 -79 7 -181 19 -227 27 -109 18 -382 18
-492 0 -153 -26 -245 -30 -271 -12 -22 16 -22 16 17 16 22 0 67 5 100 11 213
37 408 45 605 24z m2376 0 c77 -8 166 -19 199 -25 89 -15 359 -12 456 4 182
32 359 41 515 27 81 -7 186 -19 233 -27 111 -18 373 -18 476 0 141 25 374 41
388 27 20 -20 -12 -31 -98 -31 -44 0 -116 -6 -160 -14 -44 -8 -144 -19 -222
-26 -152 -14 -338 -4 -512 26 -109 18 -390 19 -496 0 -44 -8 -146 -19 -226
-26 -157 -13 -334 -4 -508 26 -46 8 -118 14 -160 14 -78 0 -109 9 -97 29 9 15
47 14 212 -4z m3424 0 c74 -8 162 -19 195 -24 88 -16 358 -13 456 3 186 32
350 40 522 27 89 -7 170 -16 180 -20 17 -6 17 -8 3 -21 -14 -10 -32 -11 -99
-1 -114 15 -377 14 -478 -3 -176 -30 -359 -39 -511 -27 -79 7 -181 19 -227 27
-46 8 -118 14 -160 14 -78 0 -109 9 -97 29 9 14 52 14 216 -4z m-4336 -20 c45
-31 63 -31 94 -2 17 16 36 22 71 22 33 0 55 -6 75 -22 36 -29 63 -29 92 -2 25
23 84 31 91 12 3 -7 -3 -13 -12 -13 -9 0 -33 -11 -53 -25 -21 -14 -51 -25 -70
-25 -19 0 -49 11 -70 25 -20 14 -42 25 -48 25 -6 0 -28 -11 -48 -25 -22 -15
-51 -25 -72 -25 -21 0 -50 10 -72 25 -20 14 -42 25 -49 25 -7 0 -13 7 -13 15
0 23 43 18 84 -10z m3464 0 c37 -31 69 -32 100 -2 17 16 36 22 71 22 33 0 55
-6 75 -22 35 -28 63 -29 91 -3 29 27 85 38 85 16 0 -9 -5 -16 -11 -16 -5 0
-27 -11 -47 -25 -21 -14 -51 -25 -70 -25 -19 0 -49 11 -70 25 -20 14 -44 25
-52 25 -9 0 -31 -11 -50 -25 -21 -16 -47 -25 -70 -25 -23 0 -49 9 -70 25 -19
14 -40 25 -47 25 -7 0 -13 7 -13 15 0 24 45 18 78 -10z m-6274 -255 c61 -75
86 -125 86 -170 0 -40 -28 -87 -72 -120 -28 -21 -44 -25 -98 -24 -36 0 -74 5
-85 11 -19 10 -22 6 -42 -65 -73 -250 -71 -238 -48 -282 11 -22 12 -31 3 -36
-16 -10 -124 107 -132 143 -4 18 5 67 25 133 54 185 58 207 45 225 -10 14 -24
4 -106 -73 -94 -89 -95 -90 -83 -121 6 -17 7 -33 3 -36 -8 -5 -42 29 -149 147
-49 54 -47 77 4 47 l34 -20 100 91 c56 50 149 138 208 195 l108 104 -18 31
c-35 63 -3 50 80 -31 46 -46 108 -113 137 -149z m9246 -19 c0 -5 -8 -23 -17
-40 l-18 -30 146 -148 c160 -163 199 -222 199 -302 0 -130 -154 -281 -285
-281 -82 0 -127 30 -294 195 l-156 154 -32 -20 c-22 -14 -33 -17 -38 -8 -10
15 189 214 204 205 8 -5 5 -18 -10 -43 l-22 -35 148 -148 c206 -207 262 -233
352 -164 50 38 73 81 73 137 0 65 -25 98 -198 270 l-139 139 -31 -16 c-64 -33
-57 -12 26 72 63 64 92 84 92 63z m-1086 -51 c4 -5 5 -13 2 -19 -8 -12 -245
-4 -260 9 -4 5 -5 13 -2 19 8 12 246 3 260 -9z m-922 -9 c42 -33 69 -35 107
-6 22 16 48 25 71 25 23 0 49 -9 71 -25 38 -29 63 -27 109 6 27 20 76 23 74 4
-1 -5 -28 -24 -60 -42 -65 -36 -98 -37 -141 -3 -32 25 -73 26 -105 1 -43 -35
-71 -35 -130 -4 -76 41 -79 43 -73 54 10 15 51 10 77 -10z m-5764 -24 c3 -14
-5 -17 -53 -17 -31 0 -88 -7 -128 -14 -154 -31 -233 -39 -258 -25 -23 13 -21
14 31 22 30 4 89 15 130 23 72 15 229 33 260 30 8 -1 16 -9 18 -19z m422 8
c41 -4 102 -13 135 -22 84 -22 278 -23 375 0 172 39 377 39 550 0 46 -11 117
-17 185 -17 68 0 139 6 185 17 78 17 269 38 283 30 4 -2 7 -11 7 -19 0 -11
-15 -14 -62 -14 -35 0 -81 -5 -103 -10 -82 -20 -237 -40 -311 -40 -42 0 -133
10 -203 23 -88 15 -165 22 -256 22 -91 0 -168 -7 -256 -22 -70 -13 -161 -23
-203 -23 -74 0 -229 20 -311 40 -22 5 -68 10 -102 10 -46 0 -63 4 -63 13 0 22
12 28 44 23 17 -3 65 -8 106 -11z m2369 -26 c33 -24 26 -26 110 21 34 19 65
17 58 -4 -2 -6 -12 -13 -21 -14 -10 -2 -34 -15 -53 -28 -46 -31 -80 -30 -123
1 -19 14 -44 25 -56 25 -13 0 -40 -11 -60 -25 -43 -29 -68 -31 -109 -9 -16 9
-42 23 -57 31 -16 8 -28 19 -28 24 0 18 57 8 90 -16 41 -30 50 -31 84 -4 54
42 106 42 165 -2z m536 26 c50 -3 128 -13 175 -22 115 -22 367 -22 475 0 192
39 474 39 680 0 120 -22 358 -22 480 1 96 18 321 36 343 28 7 -2 11 -10 9 -16
-2 -7 -43 -13 -103 -17 -54 -3 -112 -9 -129 -13 -72 -15 -277 -36 -360 -36
-87 0 -265 18 -390 40 -33 5 -118 10 -190 10 -71 0 -157 -5 -190 -10 -292 -50
-469 -50 -776 0 -35 5 -94 10 -130 10 -71 0 -85 6 -68 27 7 8 25 11 48 8 20
-2 77 -7 126 -10z m-4289 -417 c53 -46 149 -126 212 -178 64 -52 117 -99 118
-105 4 -15 -129 -116 -139 -106 -5 5 3 31 17 59 14 28 26 56 26 61 0 5 -22 28
-49 50 l-50 42 -76 -93 c-42 -51 -89 -106 -104 -123 -64 -70 -171 -207 -171
-219 0 -7 9 -25 20 -39 19 -24 26 -47 14 -47 -12 0 -244 193 -244 202 0 6 10
7 23 4 78 -23 75 -25 177 99 52 64 130 157 172 208 l77 92 -42 43 c-22 23 -48
42 -55 42 -8 0 -37 -13 -64 -30 -53 -33 -68 -37 -68 -17 0 15 90 137 101 137
4 0 51 -37 105 -82z m1269 -24 c90 -26 391 -26 498 0 104 25 220 27 225 5 2
-14 -13 -17 -95 -23 -54 -4 -134 -16 -178 -27 -109 -26 -291 -26 -400 0 -44
11 -120 22 -170 26 -89 6 -135 19 -135 38 0 15 184 1 255 -19z m1217 -1 c96
-26 396 -25 498 2 105 28 314 28 420 0 105 -28 388 -29 503 -1 102 24 222 27
222 6 0 -12 -24 -18 -110 -27 -60 -6 -141 -18 -180 -27 -104 -23 -280 -21
-385 5 -116 30 -393 32 -485 5 -39 -12 -109 -19 -200 -23 -117 -4 -155 -1
-230 15 -49 11 -132 24 -182 28 -84 6 -93 8 -93 27 0 19 4 20 80 14 44 -4 108
-14 142 -24z m2030 2 c46 -31 72 -31 123 0 50 31 73 31 115 0 40 -30 72 -32
108 -6 40 28 67 34 81 17 10 -12 5 -18 -32 -34 -24 -11 -48 -25 -51 -31 -13
-20 -75 -12 -114 14 -20 14 -44 25 -52 25 -8 0 -32 -11 -52 -25 -20 -14 -50
-25 -66 -25 -15 0 -43 11 -62 25 -19 14 -42 25 -52 25 -18 0 -25 20 -11 33 11
12 27 8 65 -18z m900 -2 c113 -26 512 -25 628 2 115 26 406 27 525 1 50 -11
148 -20 259 -23 l180 -6 -25 -20 c-22 -18 -35 -19 -169 -14 -82 4 -176 13
-215 23 -101 24 -480 24 -580 0 -107 -27 -394 -33 -510 -12 -49 10 -151 22
-225 28 -137 11 -158 16 -145 39 10 16 176 5 277 -18z m2808 -59 c71 -15 139
-131 125 -213 -9 -57 -56 -124 -119 -173 l-54 -42 44 -55 c24 -31 57 -71 72
-89 l27 -33 39 16 c69 29 61 2 -16 -57 -40 -31 -93 -74 -118 -96 -51 -47 -78
-42 -42 8 27 35 27 45 4 68 -9 9 -48 58 -86 107 -38 50 -74 95 -80 100 -6 6
-45 53 -85 105 -41 52 -76 97 -77 99 -2 2 -21 -4 -43 -12 -27 -11 -42 -13 -47
-6 -3 6 -4 11 -3 13 82 59 143 108 180 142 78 71 171 122 225 124 12 0 36 -3
54 -6z m-7796 -266 c28 -18 57 -38 64 -45 7 -7 35 -25 62 -40 65 -36 70 -68 7
-44 -28 11 -47 -5 -87 -74 -13 -22 -34 -53 -47 -68 -13 -16 -23 -35 -23 -43 0
-8 50 -47 112 -88 l112 -74 43 62 c23 33 53 80 65 103 l22 42 -21 23 c-11 13
-19 28 -16 35 5 14 244 -137 239 -152 -2 -5 -9 -9 -17 -7 -67 16 -60 22 -147
-110 -45 -67 -90 -134 -99 -148 -86 -128 -123 -188 -123 -200 0 -7 9 -24 21
-36 12 -12 18 -27 15 -33 -8 -13 -231 134 -231 152 0 12 4 13 45 2 23 -5 32 4
98 104 39 60 72 113 72 118 0 5 -21 22 -47 39 -25 16 -56 36 -68 44 -88 60
-108 71 -116 63 -4 -4 -39 -55 -78 -113 -64 -97 -69 -107 -55 -125 50 -70 28
-66 -100 19 -115 76 -143 105 -88 91 15 -4 34 -8 42 -9 8 0 72 86 155 210 182
274 174 258 147 287 -21 22 -29 47 -15 47 3 0 29 -15 57 -32z m2071 -98 c0
-12 -18 -16 -80 -21 -45 -3 -103 -11 -130 -17 -154 -35 -304 -41 -364 -13
l-42 18 128 0 c91 0 160 6 238 21 172 33 250 37 250 12z m515 -12 c155 -28
300 -27 455 2 146 28 312 30 435 6 217 -41 288 -42 515 -2 118 21 198 27 214
17 27 -17 -1 -31 -62 -31 -34 0 -80 -5 -102 -10 -73 -18 -239 -40 -308 -40
-66 0 -223 21 -302 40 -60 14 -261 12 -330 -5 -33 -7 -111 -20 -173 -26 -120
-14 -251 -5 -397 26 -38 8 -96 15 -127 15 -56 0 -76 10 -62 31 8 13 84 6 244
-23z m2028 -5 l43 -25 37 24 c55 36 83 40 123 18 77 -42 79 -43 120 -15 48 31
82 36 87 13 2 -12 -3 -18 -13 -18 -9 0 -28 -9 -42 -20 -43 -34 -87 -36 -137
-6 -55 32 -68 32 -114 1 -20 -14 -48 -25 -63 -25 -14 0 -43 11 -63 25 -20 14
-43 25 -51 25 -17 0 -28 17 -20 30 8 13 38 5 93 -27z m842 16 c47 -6 109 -15
139 -20 30 -5 74 -9 97 -9 54 0 66 -17 19 -26 -41 -7 -142 1 -264 22 -46 8
-117 14 -157 14 -55 0 -74 3 -74 13 0 8 3 17 7 21 8 7 96 2 233 -15z m1688
-146 c48 -38 114 -88 147 -112 33 -24 62 -47 65 -51 3 -3 34 -28 70 -55 36
-27 80 -62 99 -78 28 -24 41 -28 80 -25 25 2 47 -1 49 -6 6 -14 -232 -165
-240 -153 -4 7 2 21 12 32 11 12 20 25 20 31 -1 11 -106 98 -124 102 -14 3
-166 -94 -166 -106 0 -4 9 -38 18 -77 l18 -70 39 0 c39 0 58 -18 31 -28 -8 -3
-47 -27 -85 -52 -76 -50 -104 -52 -70 -5 25 33 23 80 -12 260 -85 438 -83 429
-62 446 10 7 20 14 22 14 2 0 42 -30 89 -67z m-6394 -219 c72 -37 125 -71 123
-78 -5 -12 -5 -12 -53 -2 -30 7 -31 6 -84 -96 -29 -57 -56 -107 -60 -113 -4
-5 -36 -64 -70 -130 -35 -66 -68 -128 -74 -137 -8 -14 -4 -23 19 -48 16 -16
26 -33 22 -36 -6 -6 -154 66 -224 108 -44 26 -42 40 5 32 26 -4 41 -2 49 8 11
13 34 55 130 238 28 52 67 126 87 163 20 38 36 74 36 81 0 7 -11 23 -25 36
-20 19 -26 40 -10 40 1 0 60 -30 129 -66z m5986 54 c0 -7 -12 -24 -26 -39
l-26 -27 124 -251 123 -252 40 3 c22 2 40 -1 40 -7 1 -13 -243 -130 -252 -122
-3 4 5 20 20 35 l27 28 -60 122 c-32 67 -61 122 -64 122 -10 0 -236 -112 -241
-119 -2 -5 23 -63 56 -131 l60 -122 34 6 c71 14 42 -16 -74 -74 -67 -33 -125
-60 -131 -60 -17 0 -11 18 15 44 17 17 23 30 17 43 -4 10 -58 123 -121 251
l-114 232 -42 0 c-23 0 -45 3 -49 7 -8 8 246 133 257 126 5 -3 -3 -18 -18 -33
l-27 -28 51 -106 c28 -58 54 -106 57 -106 17 0 244 116 244 125 -1 6 -22 53
-49 105 -48 94 -49 95 -87 96 -21 0 -39 5 -41 10 -3 8 229 132 250 133 4 1 7
-4 7 -11z m-5692 -202 c42 -19 102 -44 132 -56 76 -30 151 -69 178 -94 109
-97 31 -275 -120 -276 l-46 0 8 -32 c5 -18 14 -72 19 -120 13 -115 26 -161 56
-196 14 -17 25 -34 25 -40 0 -28 -156 41 -182 80 -9 13 -26 93 -38 178 -21
147 -38 198 -58 175 -10 -12 -68 -143 -88 -197 -12 -34 -11 -38 12 -61 14 -14
21 -28 16 -31 -8 -5 -45 9 -214 81 -50 21 -48 38 3 38 47 0 28 -35 178 319
l81 190 -30 31 c-17 17 -27 34 -24 38 10 10 6 11 92 -27z m5011 -166 c22 -103
24 -127 9 -132 -9 -4 -24 11 -42 44 -15 27 -34 52 -42 55 -13 5 -124 -34 -124
-43 0 -3 79 -228 122 -344 11 -30 31 -83 45 -117 l25 -63 44 0 c56 0 56 -13 2
-33 -24 -8 -88 -31 -142 -50 -55 -20 -104 -33 -109 -30 -5 3 7 20 28 37 l37
31 -21 60 c-22 66 -85 242 -134 378 -24 66 -35 87 -47 83 -8 -2 -37 -13 -64
-23 l-49 -18 -1 -69 c0 -38 -6 -71 -11 -73 -6 -2 -25 30 -43 72 -29 67 -37 95
-29 95 2 0 41 14 87 31 47 16 99 34 115 39 32 10 87 30 230 84 50 18 93 34 97
35 3 1 11 -21 17 -49z m-4409 -79 c52 -15 110 -32 129 -37 50 -13 52 -34 3
-34 -38 0 -41 -2 -52 -37 -41 -137 -56 -187 -78 -253 -18 -54 -25 -98 -26
-157 -1 -76 1 -84 24 -106 31 -30 100 -57 144 -57 40 0 92 34 123 79 12 18 39
86 58 150 20 64 44 143 55 177 27 81 25 104 -7 130 -16 12 -25 25 -21 29 9 10
204 -50 201 -61 -1 -5 -19 -11 -39 -14 -41 -6 -43 -9 -94 -180 -66 -223 -101
-292 -170 -335 -77 -49 -228 -28 -330 46 -46 33 -90 113 -90 165 0 36 58 255
100 376 26 76 25 83 -10 108 -28 20 -39 40 -22 40 4 0 50 -13 102 -29z m3820
-95 c0 -8 -9 -17 -19 -21 -45 -14 -45 -39 2 -220 9 -33 25 -100 37 -150 12
-49 30 -124 41 -166 10 -42 19 -79 19 -82 0 -2 -12 -8 -26 -11 -26 -7 -69 15
-120 62 -10 9 -59 49 -109 87 -49 38 -138 106 -198 152 -59 46 -109 83 -111
83 -2 0 4 -33 15 -72 10 -40 35 -138 54 -217 19 -80 41 -148 48 -153 6 -4 24
-8 40 -8 39 0 33 -18 -10 -28 -21 -5 -66 -15 -100 -24 -47 -11 -63 -12 -67 -3
-2 7 10 19 28 28 32 15 33 17 26 59 -4 23 -14 70 -23 103 -9 33 -26 103 -38
155 -12 52 -32 131 -44 175 l-22 80 -41 3 c-54 4 -54 18 1 32 23 6 55 15 71
20 67 22 61 26 336 -188 58 -44 120 -93 138 -107 28 -23 32 -24 32 -8 0 20
-31 151 -65 278 l-22 80 -37 3 c-40 4 -52 32 -13 32 12 0 51 9 87 19 80 24 90
25 90 7z m-3172 -90 c37 -8 100 -19 140 -26 76 -13 92 -26 41 -37 -17 -3 -33
-12 -36 -20 -5 -13 2 -76 33 -273 26 -169 21 -161 63 -93 140 228 181 300 181
316 0 10 -11 23 -25 29 -27 12 -36 44 -10 34 9 -3 46 -11 83 -17 108 -18 112
-19 112 -34 0 -11 -11 -15 -39 -15 -42 0 -38 4 -124 -132 -63 -99 -102 -159
-182 -282 -42 -66 -79 -126 -82 -133 -3 -7 -18 -13 -33 -13 -27 0 -29 3 -35
48 -7 53 -34 219 -64 397 -12 66 -21 132 -21 147 0 29 -44 88 -66 88 -8 0 -14
7 -14 15 0 18 -4 18 78 1z m2330 -348 c160 -320 165 -328 194 -328 25 0 56
-16 47 -24 -4 -5 -254 -46 -278 -46 -22 0 -10 28 14 34 39 10 39 28 1 105 -33
65 -38 70 -63 66 -16 -2 -58 -7 -95 -10 -62 -6 -67 -8 -77 -36 -5 -16 -13 -56
-17 -88 l-6 -59 31 -7 c36 -8 41 -23 9 -29 -72 -14 -171 -26 -179 -21 -16 11
-10 24 15 31 37 9 51 31 76 124 34 127 55 207 78 290 11 41 31 114 44 162 22
82 29 93 64 97 6 0 70 -117 142 -261z m-1485 180 c8 -29 18 -66 21 -83 15 -76
122 -481 130 -494 5 -7 24 -19 42 -27 52 -22 43 -36 -18 -30 -29 3 -97 8 -150
12 -75 4 -98 9 -98 20 0 8 10 14 24 14 41 0 47 19 30 101 -8 40 -17 75 -19 77
-4 5 -132 21 -167 22 -24 0 -31 -9 -63 -75 -19 -41 -35 -76 -35 -79 0 -2 14
-9 30 -16 54 -22 36 -36 -42 -32 -40 1 -88 5 -105 8 -41 6 -45 34 -5 34 46 0
41 -6 144 190 31 58 77 146 103 195 27 50 59 113 73 140 33 67 40 75 68 75 19
0 25 -9 37 -52z m975 15 c-2 -11 -15 -20 -33 -23 l-30 -5 2 -307 1 -306 -26
-7 c-31 -8 -29 -9 -195 195 -55 69 -112 137 -127 152 -14 15 -45 54 -70 87
-25 33 -49 60 -54 61 -5 0 -6 -14 -2 -31 3 -17 6 -119 6 -226 l0 -195 40 -15
c22 -9 40 -20 40 -25 0 -4 -45 -8 -100 -8 -55 0 -103 0 -107 -1 -4 0 -9 4 -11
9 -1 5 16 14 38 21 l40 12 -1 257 c-1 141 -4 270 -8 287 -5 22 -14 32 -39 39
-61 17 -36 32 61 34 l92 2 70 -87 c39 -47 103 -127 142 -176 40 -49 89 -107
108 -128 l35 -39 0 189 c0 200 -1 206 -49 213 -14 1 -26 8 -28 15 -3 8 15 13
59 16 151 8 150 8 146 -10z"/>
<path d="M6943 13940 l-31 -100 43 0 c70 0 107 11 102 29 -15 46 -71 171 -77
171 -3 0 -20 -45 -37 -100z"/>
<path d="M9170 13993 c-8 -3 -30 -20 -48 -37 -99 -92 -157 -359 -99 -461 57
-101 183 -125 261 -49 45 44 71 94 102 197 51 170 25 291 -71 336 -42 20 -111
26 -145 14z"/>
<path d="M9738 11586 l-28 -10 0 -268 c0 -188 3 -268 11 -268 29 0 69 -43 75
-81 6 -36 10 -40 48 -50 85 -23 223 -62 265 -75 43 -13 44 -13 71 16 15 17 25
30 21 30 -6 0 -96 143 -146 231 -5 10 -36 62 -68 116 -32 54 -86 145 -120 203
-103 173 -98 167 -129 156z"/>
<path d="M9606 11528 c-20 -35 -60 -102 -90 -150 -29 -47 -56 -92 -60 -100 -3
-7 -26 -44 -51 -83 -25 -38 -54 -86 -65 -105 -12 -19 -45 -75 -75 -124 -52
-87 -53 -91 -39 -119 11 -20 21 -27 32 -24 270 88 332 113 332 134 0 23 53 83
73 83 9 0 12 71 12 272 0 244 -2 273 -16 276 -11 2 -28 -17 -53 -60z"/>
<path d="M9525 10873 c-39 -13 -83 -28 -100 -32 -16 -5 -54 -18 -83 -30 -29
-11 -63 -21 -75 -21 -16 0 -27 -12 -41 -41 l-19 -41 58 -58 c50 -50 61 -57 78
-48 11 5 32 8 48 6 31 -5 29 -6 188 212 14 19 28 37 32 40 4 3 2 12 -5 21 -10
15 -18 14 -81 -8z"/>
<path d="M9765 10860 c-14 -15 -31 -20 -70 -20 -55 0 -63 -6 -114 -80 -14 -19
-49 -68 -79 -107 -48 -64 -53 -75 -41 -90 7 -10 14 -19 15 -21 1 -2 10 1 21 7
20 12 499 162 599 188 52 13 61 19 57 34 -3 11 -17 22 -32 24 -35 7 -161 43
-235 66 -76 24 -99 24 -121 -1z"/>
<path d="M6960 10265 c-102 -24 -309 -88 -382 -119 -18 -8 -58 -24 -88 -36
-107 -44 -299 -143 -418 -215 -144 -87 -442 -320 -442 -346 0 -10 499 -519
509 -519 3 0 48 34 99 75 79 65 152 117 224 160 53 32 202 115 206 115 3 0 23
9 46 19 159 74 394 151 458 151 15 0 29 4 32 8 3 4 -1 35 -9 68 -22 94 -62
273 -111 499 -8 39 -18 88 -22 110 -9 46 -19 49 -102 30z"/>
<path d="M8336 10213 c-4 -21 -13 -60 -21 -88 -17 -60 -45 -169 -75 -285 -11
-47 -30 -116 -40 -155 -10 -38 -23 -86 -28 -106 l-9 -37 76 -22 c42 -12 112
-35 156 -52 44 -16 98 -36 119 -44 21 -8 48 -21 60 -29 11 -8 26 -15 32 -15
15 0 179 -93 288 -163 62 -41 206 -155 244 -193 25 -27 47 -31 59 -11 5 6 101
103 215 215 192 189 204 204 183 212 -71 27 -107 105 -81 176 8 23 11 46 8 51
-4 6 -47 40 -97 77 -49 36 -94 69 -100 73 -101 77 -373 226 -535 293 -30 12
-69 28 -87 36 -76 31 -312 104 -340 104 -16 0 -22 -8 -27 -37z"/>
<path d="M7120 9494 c-25 -8 -63 -18 -85 -23 -45 -10 -119 -35 -182 -63 -24
-10 -45 -18 -48 -18 -11 0 -204 -96 -270 -134 -56 -32 -188 -122 -240 -163
-64 -51 -115 -96 -115 -103 0 -5 79 -89 176 -187 155 -157 177 -176 186 -159
6 10 19 27 29 37 11 11 19 22 19 25 0 3 17 23 38 44 20 22 42 45 48 52 27 30
94 88 103 88 5 0 11 6 14 13 3 8 31 31 64 52 32 22 63 43 68 47 28 23 87 58
98 58 7 0 23 9 37 20 14 11 30 20 35 20 6 0 28 9 50 19 22 11 60 27 85 37 25
10 49 21 54 25 4 4 -1 45 -12 91 -11 45 -28 118 -38 161 -16 72 -19 77 -43 76
-14 0 -46 -7 -71 -15z"/>
<path d="M8132 9411 c-13 -47 -31 -114 -41 -148 l-19 -61 27 -7 c14 -3 42 -10
61 -14 53 -14 151 -51 174 -67 11 -8 25 -14 31 -14 11 0 70 -31 154 -81 68
-40 208 -155 283 -233 43 -44 80 -77 82 -75 3 2 61 59 129 127 l125 123 -42
38 c-131 118 -316 242 -488 328 -70 35 -130 63 -133 63 -3 0 -24 8 -48 18 -62
27 -137 52 -182 62 -22 5 -51 13 -65 18 -26 10 -26 9 -48 -77z"/>
<path d="M4812 8286 c-49 -152 -92 -320 -92 -356 0 -23 6 -26 83 -43 77 -18
131 -30 337 -78 146 -35 204 -47 235 -53 17 -2 37 -7 45 -11 13 -4 20 15 39
97 23 100 49 193 78 272 8 21 10 42 6 45 -9 8 -125 52 -323 123 -30 11 -77 29
-105 40 -27 12 -61 24 -75 28 -14 5 -61 21 -105 38 l-80 29 -43 -131z"/>
<path d="M5572 8083 c-31 -90 -53 -171 -72 -263 -19 -89 -16 -100 23 -100 9 0
43 -6 75 -14 61 -16 170 -41 322 -76 52 -12 122 -29 155 -37 33 -9 78 -19 101
-23 l41 -6 16 70 c9 39 17 115 19 170 l2 98 -40 15 c-21 8 -57 21 -79 28 -49
17 -175 64 -270 100 -38 15 -81 30 -95 35 -14 5 -56 20 -95 34 -38 14 -73 26
-76 26 -4 0 -16 -26 -27 -57z"/>
<path d="M4052 10355 c-18 -39 3 -75 43 -75 24 0 37 7 49 25 15 23 15 27 0 50
-12 18 -25 25 -49 25 -24 0 -34 -6 -43 -25z"/>
<path d="M4275 10196 c-13 -19 -14 -28 -4 -50 10 -21 19 -26 49 -26 46 0 67
34 48 75 -16 35 -71 35 -93 1z"/>
<path d="M3777 10084 c-14 -14 -6 -24 18 -24 28 0 44 -25 26 -43 -6 -6 -11
-45 -11 -93 l0 -83 -47 -64 c-151 -204 -177 -243 -169 -262 5 -13 43 -15 266
-15 l260 0 0 24 c0 14 -5 28 -10 31 -6 3 -28 33 -50 66 l-41 59 -125 0 c-114
0 -125 2 -122 18 3 15 17 17 106 20 56 1 102 5 102 7 0 2 -18 30 -40 61 -39
56 -40 60 -40 139 0 62 -4 86 -15 95 -20 17 -2 40 32 40 15 0 23 5 21 13 -5
13 -148 23 -161 11z"/>
<path d="M11810 7840 l0 -240 400 0 400 0 0 240 0 240 -400 0 -400 0 0 -240z
m456 140 c37 -13 74 -67 74 -108 0 -19 8 -40 20 -52 26 -26 25 -58 -2 -87 -26
-28 -61 -30 -88 -3 -11 11 -33 20 -50 20 -17 0 -39 -9 -50 -20 -11 -11 -33
-20 -49 -20 -53 0 -81 72 -44 112 10 11 18 35 20 53 5 84 86 134 169 105z"/>
<path d="M12189 7927 c-26 -14 -45 -56 -36 -80 19 -49 94 -56 124 -11 33 52
-31 119 -88 91z"/>
<path d="M12115 7780 c-3 -5 -1 -10 4 -10 6 0 11 5 11 10 0 6 -2 10 -4 10 -3
0 -8 -4 -11 -10z"/>
<path d="M11762 7441 c-18 -22 -32 -42 -32 -45 0 -3 214 -6 475 -6 261 0 475
3 475 6 0 3 -14 24 -31 45 l-31 39 -115 0 c-114 0 -115 0 -110 -22 12 -44 -4
-48 -187 -48 -94 0 -177 4 -185 9 -12 8 -13 14 -3 35 l12 26 -119 0 -118 0
-31 -39z"/>
<path d="M12086 7471 c-5 -8 215 -4 239 4 6 2 -45 4 -112 4 -67 1 -124 -3
-127 -8z"/>
<path d="M12183 7330 c-248 -3 -454 -8 -457 -11 -4 -3 -4 -14 0 -23 5 -14 25
-16 133 -16 70 0 283 -3 472 -7 l344 -6 13 27 c18 40 15 46 -20 44 -18 -2
-236 -5 -485 -8z"/>
<path d="M3615 7691 c-3 -5 2 -17 11 -26 12 -12 19 -13 30 -4 22 18 17 39 -10
39 -14 0 -27 -4 -31 -9z"/>
<path d="M3055 7608 c-41 -29 -115 -100 -115 -111 0 -4 18 -7 41 -5 37 3 43 7
66 48 14 25 31 52 39 61 30 34 13 38 -31 7z"/>
<path d="M3158 7583 c-25 -27 -51 -58 -57 -70 -12 -23 -11 -23 54 -23 l65 0 0
70 c0 39 -4 70 -8 70 -4 0 -28 -21 -54 -47z"/>
<path d="M3290 7560 l0 -70 65 0 c36 0 65 4 65 9 0 26 -100 131 -124 131 -3 0
-6 -31 -6 -70z"/>
<path d="M3440 7585 c17 -24 34 -55 40 -69 8 -23 15 -26 57 -26 l48 1 -67 63
c-37 35 -77 66 -88 69 -17 4 -16 0 10 -38z"/>
<path d="M2886 7383 c-19 -54 -21 -136 -5 -199 l11 -44 59 0 59 0 -7 58 c-9
68 -9 154 0 200 l7 32 -54 0 -54 0 -16 -47z"/>
<path d="M3066 7399 c-8 -40 -8 -139 0 -206 l7 -53 73 0 74 0 0 145 0 145 -74
0 -73 0 -7 -31z"/>
<path d="M3290 7285 l0 -145 74 0 75 0 11 57 c12 58 10 199 -4 221 -4 8 -35
12 -82 12 l-74 0 0 -145z"/>
<path d="M3515 7285 l0 -146 55 3 54 3 9 40 c11 52 2 212 -14 231 -7 8 -30 14
-58 14 l-46 0 0 -145z"/>
<path d="M2930 7070 c0 -17 98 -107 145 -134 81 -45 94 -43 44 7 -26 25 -56
66 -68 91 -21 46 -22 46 -71 46 -28 0 -50 -5 -50 -10z"/>
<path d="M3108 7059 c9 -23 90 -109 104 -109 4 0 8 29 8 65 l0 65 -60 0 c-56
0 -59 -1 -52 -21z"/>
<path d="M3290 7015 c0 -36 4 -65 9 -65 16 0 61 42 92 86 l30 44 -66 0 -65 0
0 -65z"/>
<path d="M3460 7028 c-13 -27 -42 -65 -64 -84 -49 -42 -26 -46 42 -7 52 29
103 74 134 116 l19 27 -53 0 -53 -1 -25 -51z"/>
<path d="M3950 5639 c-63 -24 -129 -83 -168 -149 -24 -40 -27 -55 -27 -140 1
-109 10 -135 83 -212 46 -49 104 -82 167 -94 l35 -6 0 69 0 69 -65 64 c-36 35
-65 70 -65 77 0 29 23 20 72 -28 l53 -53 3 68 c2 57 6 67 20 64 15 -3 17 -22
20 -166 l3 -163 32 6 c60 13 151 70 187 118 81 106 81 268 0 374 -79 104 -231
148 -350 102z"/>
<path d="M11145 5649 c-58 -17 -139 -74 -174 -123 -69 -97 -71 -250 -3 -348
36 -53 68 -78 144 -113 84 -39 88 -37 88 48 l0 73 -65 64 c-36 35 -65 67 -65
71 0 4 7 10 16 13 9 4 33 -11 64 -40 l49 -46 3 59 c2 46 7 59 21 61 16 3 17
-10 17 -162 0 -188 -6 -179 87 -145 69 26 143 93 175 157 33 67 33 197 0 264
-62 127 -229 205 -357 167z"/>
<path d="M5980 5430 c-40 -41 -39 -77 1 -118 44 -45 98 -45 140 0 38 42 38 78
-1 118 -23 24 -38 30 -70 30 -32 0 -47 -6 -70 -30z"/>
<path d="M6835 5448 c-32 -18 -44 -40 -44 -78 0 -55 38 -90 99 -90 45 0 90 47
90 93 0 65 -86 109 -145 75z"/>
<path d="M7653 5436 c-22 -19 -28 -32 -28 -66 0 -74 73 -112 144 -75 32 16 41
33 41 75 0 42 -9 59 -41 75 -41 22 -84 18 -116 -9z"/>
<path d="M8491 5434 c-24 -20 -31 -34 -31 -62 0 -42 5 -52 40 -75 60 -41 150
3 150 73 0 22 -9 41 -29 61 -39 38 -87 39 -130 3z"/>
<path d="M9321 5434 c-90 -76 31 -206 123 -133 40 31 49 64 31 103 -29 60
-102 74 -154 30z"/>
<path d="M5700 5355 c-11 -13 4 -32 104 -127 90 -86 116 -116 116 -137 0 -14
14 -75 30 -136 16 -60 30 -120 30 -131 0 -34 38 -74 70 -74 32 0 70 40 70 74
0 11 14 71 30 131 16 61 30 122 30 136 0 21 26 51 117 137 100 95 115 113 103
126 -7 9 -18 16 -24 16 -12 0 -124 -78 -159 -110 -33 -32 -67 -45 -85 -34 -11
7 -27 8 -49 1 -22 -7 -44 -7 -66 0 -22 7 -38 6 -49 -1 -18 -11 -52 2 -85 34
-35 32 -147 110 -159 110 -6 0 -17 -7 -24 -15z"/>
<path d="M6527 5358 c-3 -7 46 -65 109 -128 l114 -115 14 -70 c8 -38 22 -101
31 -140 10 -38 19 -79 21 -90 9 -51 84 -86 112 -52 6 7 20 51 32 97 11 47 27
108 34 135 8 28 17 66 21 85 5 27 32 61 117 147 78 78 109 116 105 127 -11 28
-37 17 -135 -56 l-97 -73 -120 -1 -120 0 -55 40 c-30 23 -59 46 -65 52 -40 44
-108 68 -118 42z"/>
<path d="M7363 5354 c-4 -11 29 -51 111 -133 95 -95 116 -122 116 -145 0 -16
9 -59 20 -95 11 -36 25 -92 31 -123 13 -71 40 -108 80 -108 38 0 62 38 78 123
7 34 21 90 32 125 10 34 19 75 19 90 -1 22 22 48 115 137 89 84 115 114 110
128 -12 30 -41 19 -144 -58 -96 -72 -123 -85 -135 -66 -4 5 -21 5 -42 -2 -24
-7 -47 -8 -73 -1 -25 7 -43 7 -53 0 -16 -10 -66 21 -169 106 -49 40 -86 49
-96 22z"/>
<path d="M8199 5354 c-11 -13 4 -31 105 -127 94 -90 117 -117 116 -139 0 -16
8 -54 19 -85 10 -32 26 -92 35 -134 21 -93 37 -119 76 -119 35 0 67 38 75 89
3 20 14 69 25 109 12 41 23 94 27 119 6 43 15 55 121 158 83 81 113 117 109
129 -12 29 -42 17 -142 -59 -91 -68 -135 -90 -135 -66 0 5 -16 4 -36 -2 -25
-8 -47 -8 -75 0 -22 6 -42 6 -45 2 -12 -19 -39 -6 -135 66 -55 41 -106 75
-113 75 -8 0 -19 -7 -27 -16z"/>
<path d="M9033 5354 c-4 -12 26 -48 105 -127 62 -61 112 -115 112 -121 1 -24
77 -312 88 -333 9 -17 22 -23 47 -23 27 0 37 6 54 34 12 18 21 44 21 57 0 13
7 49 16 79 9 30 22 87 31 125 15 70 15 70 129 185 90 91 112 118 102 128 -21
21 -40 13 -136 -60 l-95 -73 -121 -1 -121 -1 -45 36 c-131 107 -174 128 -187
95z"/>
<path d="M3473 5188 c-51 -36 -77 -107 -62 -164 14 -48 74 -114 105 -114 36 0
33 48 -6 85 -45 44 -35 91 11 50 15 -15 17 -14 23 10 13 53 31 20 34 -63 3
-75 5 -82 23 -82 29 0 74 34 98 74 40 63 20 152 -44 201 -46 34 -135 36 -182
3z"/>
<path d="M4436 5174 c-41 -40 -56 -70 -56 -115 0 -41 33 -103 69 -128 73 -53
100 3 34 71 -29 29 -34 41 -25 50 9 9 17 6 37 -12 l25 -23 0 26 c0 30 18 46
31 26 5 -8 9 -47 9 -86 0 -69 1 -73 23 -73 31 0 95 67 108 114 15 56 -11 126
-59 160 -31 21 -50 26 -99 26 -55 0 -63 -3 -97 -36z"/>
<path d="M10642 5188 c-36 -26 -72 -91 -72 -132 0 -62 70 -146 123 -146 31 0
21 50 -20 92 -29 29 -34 41 -25 50 9 9 17 7 36 -11 l24 -23 4 28 c2 18 9 29
18 29 12 0 16 -17 18 -82 3 -79 4 -83 26 -83 32 0 93 62 107 110 17 56 0 108
-51 154 -36 33 -46 36 -98 36 -43 0 -65 -6 -90 -22z"/>
<path d="M11612 5184 c-42 -33 -62 -73 -62 -124 0 -50 19 -89 60 -124 45 -37
70 -35 70 7 0 24 -8 41 -30 62 -44 42 -34 80 11 40 15 -15 17 -14 23 10 13 53
31 20 34 -63 3 -80 4 -82 27 -82 14 0 42 15 64 36 31 28 41 45 47 81 9 61 -9
115 -51 152 -32 28 -43 31 -98 31 -51 0 -68 -5 -95 -26z"/>
<path d="M12975 4129 c64 -90 96 -129 104 -129 4 0 18 19 31 43 12 23 30 50
38 60 8 9 13 19 11 20 -2 2 -46 14 -98 26 -51 12 -101 25 -110 29 -9 3 1 -17
24 -49z"/>
<path d="M12483 3763 c-29 -13 -82 -78 -72 -87 2 -2 48 -38 103 -81 l98 -76
29 33 c55 64 39 142 -39 192 -51 33 -81 38 -119 19z"/>
<path d="M2762 3450 c-90 -86 -93 -90 -78 -111 23 -33 67 -59 101 -59 61 0
141 70 152 133 4 27 -1 41 -29 77 -18 24 -37 45 -43 46 -5 2 -52 -37 -103 -86z"/>
<path d="M11500 2788 c-59 -41 -59 -48 5 -129 31 -41 71 -89 87 -108 29 -33
32 -34 57 -20 41 23 73 79 67 116 -6 42 -61 118 -102 143 -41 26 -73 25 -114
-2z"/>
<path d="M11003 2246 c4 -9 11 -45 17 -80 10 -64 28 -126 37 -126 9 0 113 72
113 78 0 7 -27 30 -114 99 -35 27 -57 40 -53 29z"/>
<path d="M5021 1888 c-81 -186 -83 -190 -67 -206 9 -9 39 -17 73 -20 65 -4 82
7 122 83 39 74 17 141 -55 171 -48 20 -52 18 -73 -28z"/>
<path d="M8322 1217 c-33 -136 -35 -131 45 -123 37 4 70 9 72 12 3 3 -17 49
-44 104 l-50 99 -23 -92z"/>
<path d="M6887 1193 l-47 -98 38 -7 c20 -4 53 -7 73 -7 l36 -1 -9 48 c-4 26
-16 73 -26 105 l-17 59 -48 -99z"/>
</g>
</svg>
